<svg xmlns="http://www.w3.org/2000/svg" xmlns:xlink="http://www.w3.org/1999/xlink" xmlns:serif="http://www.serif.com/" width="100%" height="100%" viewBox="0 0 1165 296" xml:space="preserve" style="fill-rule:evenodd;clip-rule:evenodd;stroke-linecap:round;stroke-miterlimit:10;"><g id="walvis"><g><path d="M251.495,169.468c0,-121.137 -124.06,-166.708 -124.06,-166.708c0,0 -124.06,45.571 -124.06,166.708c0,0 -4.158,32.398 17.877,48.969c22.035,16.572 201.972,65.54 226.251,-14.997l3.992,-33.972Z" style="fill:url(#_Radial1);fill-rule:nonzero;"></path><path d="M3.291,185.791c0,0 11.642,56.675 37.917,72.004c0,0 38.831,6.379 75.334,-19.721c36.503,-26.1 81.654,-35.462 123.894,-19.223l4.407,-9.363c0,0 -42.74,-28.585 -109.758,-16.737c-67.02,11.849 -72.009,20.135 -131.794,-6.96Z" style="fill:url(#_Linear2);fill-rule:nonzero;"></path><path d="M43.453,259.535c0,0 46.98,-2.072 91.216,-32.398c43.571,-29.911 106.682,-7.706 106.682,-7.706c0,0 -79.243,132.324 -197.898,40.104Z" style="fill:url(#_Linear3);fill-rule:nonzero;"></path><path d="M98.166,246.443c0,0 15.715,-4.889 24.612,-12.263c8.897,-7.374 26.775,-12.511 26.775,-12.511c0,0 -28.355,-34.552 -4.906,-58.663c23.448,-24.112 60.949,-12.346 78.494,-71.506c0,0 -20.04,9.031 -44.319,7.209c-24.28,-1.823 -43.987,5.8 -50.473,26.928c0,0 -8.315,-28.088 -43.071,-27.84c-34.757,0.249 -35.422,-0.58 -51.387,-7.954c0,0 8.315,40.02 35.089,50.46c26.774,10.44 40.91,14.334 48.061,42.506c7.151,28.171 -18.875,63.634 -18.875,63.634Z" style="fill:url(#_Linear4);fill-rule:nonzero;"></path><path d="M126.507,4.334c-16.941,-0.103 -59.638,35.192 -74.894,48.195c19.02,22.292 46.264,35.089 74.894,34.883c28.729,0.206 56.171,-12.694 75.192,-35.192c-24.668,-22.395 -60.629,-47.886 -75.192,-47.886Z" style="fill:#ffc835;fill-opacity:0.46;fill-rule:nonzero;"></path><path d="M126.507,4.334c-16.941,-0.103 -59.638,35.192 -74.894,48.195c19.02,22.292 46.264,35.089 74.894,34.883c28.729,0.206 56.171,-12.694 75.192,-35.192c-24.668,-22.395 -60.629,-47.886 -75.192,-47.886Z" style="fill:#a0ffee;fill-opacity:0.25;fill-rule:nonzero;"></path><path d="M126.936,4.334c-14.219,-0.083 -50.057,28.255 -62.862,38.695c15.965,17.897 38.832,28.171 62.862,28.005c24.113,0.166 47.146,-10.191 63.111,-28.254c-20.705,-17.98 -50.888,-38.446 -63.111,-38.446Z" style="fill:#ffd420;fill-opacity:0.52;fill-rule:nonzero;"></path><path d="M125.855,4.334c-11.475,-0.083 -39.746,20.217 -48.809,26.929c11.973,14.583 29.934,23.034 48.892,22.951c19.125,0 37.251,-8.617 49.225,-23.449c-20.039,-18.725 -49.308,-26.431 -49.308,-26.431Z" style="fill:#fdb307;fill-opacity:0.6;fill-rule:nonzero;"></path><path d="M125.439,4.417c-8.232,-1.823 -35.172,17.4 -35.505,16.737c8.98,9.777 21.785,15.329 35.089,15.329c14.053,0.083 27.44,-6.049 36.503,-16.737c-12.805,-9.032 -28.188,-13.589 -36.087,-15.329Z" style="fill:#ff8d00;fill-opacity:0.45;fill-rule:nonzero;"></path><path d="M126.437,125.223c0,0 -7.65,-22.454 -32.346,-27.177c-22.616,-4.309 -23.531,7.954 -61.78,-9.363c0,0 5.82,41.511 43.903,53.857c47.562,15.329 50.306,56.84 18.543,105.312" style="fill:none;fill-rule:nonzero;stroke:#595959;stroke-width:5.16px;"></path><path d="M146.809,220.094c-23.698,-27.011 -17.961,-62.225 29.684,-77.223c38.249,-12.014 44.319,-53.525 44.319,-53.525c-38.332,17.068 -39.164,4.805 -61.864,8.948c-24.695,4.557 -32.511,26.929 -32.511,26.929" style="fill:none;fill-rule:nonzero;stroke:#595959;stroke-width:5.16px;"></path><path d="M250.663,167.231c0,-118.651 -124.06,-163.228 -124.06,-163.228c0,0 -124.143,44.577 -124.143,163.228c0,69.352 55.544,125.529 124.06,125.529c68.516,0 124.143,-56.177 124.143,-125.529Z" style="fill:none;fill-rule:nonzero;stroke:#595959;stroke-width:5.05px;stroke-linecap:square;"></path><path d="M240.02,216.2c-18.459,-6.546 -69.347,-14.417 -122.813,20.3c-35.588,23.117 -62.362,21.874 -77.08,20.549" style="fill:none;fill-rule:nonzero;stroke:#595959;stroke-width:5.07px;"></path><path d="M116.708,197.557c-66.021,22.62 -113.084,-9.28 -113.084,-9.28" style="fill:none;fill-rule:nonzero;stroke:#595959;stroke-width:5.13px;stroke-linecap:butt;"></path><path d="M241.267,210.649c-17.212,-14.915 -59.12,-25.437 -109.924,-17.235" style="fill:none;fill-rule:nonzero;stroke:#595959;stroke-width:5.19px;stroke-linecap:butt;"></path></g></g><g id="herstel"><g id="herstel1" serif:id="herstel"><path d="M344.314,140.645c0.042,0.168 0.063,0.483 0.063,0.945c0,0.672 -0.053,1.868 -0.158,3.59c-0.105,1.722 -0.619,3.958 -1.543,6.708c-0.924,2.751 -2.519,5.281 -4.787,7.591c-3.317,3.191 -7.685,4.787 -13.101,4.787c-1.134,0 -2.31,-0.063 -3.528,-0.189c-3.443,-0.462 -6.267,-1.124 -8.472,-1.984c-2.204,-0.861 -3.832,-1.67 -4.881,-2.426c-1.05,-0.755 -1.617,-1.196 -1.701,-1.322l-0.441,-0.504l0,-16.314l3.338,0l0,14.865c0.63,0.546 1.974,1.281 4.032,2.205c2.057,0.924 4.892,1.616 8.503,2.078c1.092,0.126 2.163,0.189 3.212,0.189c4.452,0 8.021,-1.281 10.708,-3.842c1.512,-1.47 2.646,-3.107 3.402,-4.913c0.756,-1.806 1.27,-3.559 1.543,-5.26c0.273,-1.7 0.42,-3.107 0.441,-4.22c0.021,-1.113 0.01,-1.711 -0.031,-1.795l0,-0.126c0,-4.451 -0.515,-8.125 -1.544,-11.023c-1.029,-2.897 -2.414,-5.28 -4.157,-7.149c-1.743,-1.869 -3.727,-3.422 -5.952,-4.661c-2.226,-1.239 -4.556,-2.383 -6.992,-3.433c-2.73,-1.176 -5.344,-2.509 -7.842,-4c-2.499,-1.491 -4.598,-3.464 -6.299,-5.921c-1.701,-2.456 -2.74,-5.7 -3.118,-9.731c-0.126,-1.176 -0.189,-2.667 -0.189,-4.473l0,-2.834c0,-1.47 0.378,-3.506 1.134,-6.11c0.756,-2.603 2.142,-4.934 4.157,-6.992c3.234,-3.107 7.769,-4.661 13.606,-4.661c1.385,0 2.813,0.084 4.283,0.252c3.485,0.462 6.32,1.123 8.503,1.984c2.184,0.861 3.811,1.669 4.882,2.425c1.071,0.756 1.627,1.197 1.669,1.323l0.504,0.504l0,16.062l-3.401,0l0,-14.613c-0.63,-0.546 -1.963,-1.281 -4,-2.205c-2.037,-0.924 -4.882,-1.638 -8.535,-2.141c-1.344,-0.168 -2.625,-0.252 -3.842,-0.252c-4.955,0 -8.714,1.238 -11.275,3.716c-2.436,2.645 -3.801,5.753 -4.094,9.322c-0.126,1.764 -0.189,3.339 -0.189,4.724c0,1.428 0.063,2.667 0.189,3.717c0.503,4.955 2.173,8.597 5.007,10.928c2.835,2.331 6.246,4.294 10.236,5.889c3.317,1.386 6.54,3.097 9.668,5.134c3.129,2.037 5.722,4.934 7.779,8.692c2.058,3.759 3.129,8.913 3.213,15.464Z" style="fill:#595959;fill-rule:nonzero;stroke:#595959;stroke-width:0.83px;stroke-linecap:butt;stroke-linejoin:round;stroke-miterlimit:2;"></path><path d="M376.782,160.486l0.378,3.402c-0.84,0.084 -1.659,0.126 -2.457,0.126c-4.367,-0.042 -7.978,-1.323 -10.834,-3.843c-3.653,-3.401 -5.48,-8.293 -5.48,-14.676l0,-49.698l-8.062,0l0,-3.401l8.062,0l0,-13.102l3.401,0l0,13.102l14.425,0l0,3.401l-14.425,0l0,49.698c0,5.501 1.449,9.553 4.347,12.157c2.225,1.973 5.06,2.96 8.503,2.96c0.714,0 1.428,-0.042 2.142,-0.126Z" style="fill:#595959;fill-rule:nonzero;stroke:#595959;stroke-width:0.83px;stroke-linecap:butt;stroke-linejoin:round;stroke-miterlimit:2;"></path><path d="M400.494,158.912l3.338,0l0,3.338l-21.164,0l0,-3.338l10.834,0c-1.637,-1.89 -2.456,-4.053 -2.456,-6.488c0,-5.417 0.021,-12.682 0.063,-21.794c0.042,-9.112 0.063,-15.726 0.063,-19.841c0,-3.822 -0.105,-6.95 -0.315,-9.386c-0.21,-2.435 -0.756,-4.073 -1.638,-4.913c-0.588,-0.588 -1.701,-0.882 -3.338,-0.882c-0.756,0 -1.617,0.063 -2.583,0.189l-0.378,-3.338c1.008,-0.126 1.995,-0.189 2.961,-0.189c0.588,0 1.396,0.053 2.425,0.157c1.029,0.105 2.089,0.62 3.181,1.544c1.343,1.175 2.183,3.044 2.519,5.606c0.336,2.561 0.504,6.298 0.504,11.212c0,4.115 -0.01,10.729 -0.031,19.841c-0.021,9.112 -0.053,16.377 -0.095,21.794c0.042,1.763 0.672,3.275 1.89,4.535c1.176,1.176 2.582,1.827 4.22,1.953Zm-7.873,-82.578l0,8.44l-3.339,0l0,-8.44l3.339,0Z" style="fill:#595959;fill-rule:nonzero;stroke:#595959;stroke-width:0.83px;stroke-linecap:butt;stroke-linejoin:round;stroke-miterlimit:2;"></path><path d="M441.276,113.434l-3.401,0l0,-15.81c-0.378,-0.336 -1.018,-0.777 -1.921,-1.323c-0.903,-0.546 -2.047,-1.05 -3.433,-1.511c-1.386,-0.462 -3.023,-0.693 -4.913,-0.693l-0.126,0c-5.585,0.042 -9.532,1.805 -11.842,5.291c-0.966,1.553 -1.638,3.17 -2.016,4.85c-0.377,1.679 -0.65,3.212 -0.818,4.598l-0.063,0.378c-0.21,1.932 -0.357,5.186 -0.441,9.763c-0.042,2.268 -0.063,4.598 -0.063,6.992c0,2.351 0.031,5.406 0.094,9.165c0.063,3.758 0.2,7.233 0.41,10.424c0.126,1.638 0.399,3.328 0.818,5.071c0.42,1.742 1.145,3.359 2.174,4.85c1.028,1.49 2.477,2.708 4.346,3.653c1.868,0.945 4.314,1.417 7.338,1.417l0.063,0c2.855,-0.084 5.154,-0.546 6.897,-1.385c1.743,-0.84 2.908,-1.554 3.496,-2.142l0,-15.747l3.401,0l0,17.133l-0.441,0.504c-0.084,0.126 -0.64,0.588 -1.669,1.385c-1.029,0.798 -2.519,1.596 -4.472,2.394c-1.953,0.798 -4.357,1.218 -7.212,1.26l-0.063,0c-6.761,0 -11.674,-2.31 -14.739,-6.929c-1.176,-1.932 -1.995,-3.895 -2.457,-5.889c-0.462,-1.995 -0.735,-3.769 -0.819,-5.323c-0.252,-3.233 -0.399,-7.391 -0.441,-12.472c-0.042,-2.561 -0.063,-5.06 -0.063,-7.495c0,-2.436 0.032,-5.396 0.095,-8.882c0.063,-3.485 0.199,-6.214 0.409,-8.188l0.063,-0.315c0.168,-2.016 0.672,-4.388 1.512,-7.118c0.84,-2.729 2.509,-5.144 5.008,-7.243c2.498,-2.1 6.33,-3.213 11.495,-3.339c2.855,0.042 5.259,0.452 7.212,1.229c1.953,0.776 3.443,1.574 4.472,2.393c1.029,0.819 1.585,1.291 1.669,1.417l0.441,0.441l0,17.196Z" style="fill:#595959;fill-rule:nonzero;stroke:#595959;stroke-width:0.83px;stroke-linecap:butt;stroke-linejoin:round;stroke-miterlimit:2;"></path><path d="M486.153,155.762c0,0.84 0.178,1.596 0.535,2.268c0.357,0.672 0.767,1.249 1.228,1.732c0.462,0.483 0.882,0.85 1.26,1.102l0.567,0.441l-1.701,2.898c-0.084,-0.042 -0.388,-0.252 -0.913,-0.63c-0.525,-0.378 -1.123,-0.924 -1.795,-1.638c-0.672,-0.714 -1.26,-1.585 -1.764,-2.614c-0.504,-1.029 -0.777,-2.215 -0.819,-3.559l0,-44.658c0,-7.643 -2.351,-12.766 -7.054,-15.37c-1.512,-0.671 -3.024,-1.007 -4.535,-1.007c-2.478,0 -4.914,0.881 -7.307,2.645c-2.268,1.89 -3.916,4.756 -4.945,8.598c-1.028,3.842 -1.69,7.968 -1.984,12.377c-0.252,3.821 -0.378,7.328 -0.378,10.519l0,1.386c0,11.422 -0.021,20.975 -0.063,28.66l8.819,0l0,3.338l-21.101,0l0,-3.338l8.944,0l0,-71.114c0,-3.527 -0.126,-6.519 -0.378,-8.976c-0.252,-2.457 -0.861,-4.147 -1.827,-5.071c-0.756,-0.713 -2.036,-1.07 -3.842,-1.07c-0.546,0 -1.155,0.042 -1.827,0.126l-0.378,-3.339c0.798,-0.084 1.533,-0.126 2.205,-0.126c2.688,0 4.724,0.63 6.11,1.89c1.47,1.386 2.383,3.433 2.74,6.141c0.357,2.709 0.535,6.184 0.535,10.425l0,14.739c1.218,-3.359 2.982,-5.963 5.291,-7.81c3.108,-2.226 6.236,-3.339 9.386,-3.339c2.015,0 4.031,0.441 6.046,1.323c1.134,0.546 2.394,1.491 3.78,2.834c1.385,1.344 2.593,3.255 3.622,5.732c1.028,2.478 1.543,5.753 1.543,9.827l0,44.658Z" style="fill:#595959;fill-rule:nonzero;stroke:#595959;stroke-width:0.83px;stroke-linecap:butt;stroke-linejoin:round;stroke-miterlimit:2;"></path><path d="M519.187,160.486l0.378,3.402c-0.839,0.084 -1.658,0.126 -2.456,0.126c-4.367,-0.042 -7.979,-1.323 -10.834,-3.843c-3.653,-3.401 -5.48,-8.293 -5.48,-14.676l0,-49.698l-8.063,0l0,-3.401l8.063,0l0,-13.102l3.401,0l0,13.102l14.425,0l0,3.401l-14.425,0l0,49.698c0,5.501 1.449,9.553 4.346,12.157c2.226,1.973 5.061,2.96 8.504,2.96c0.714,0 1.428,-0.042 2.141,-0.126Z" style="fill:#595959;fill-rule:nonzero;stroke:#595959;stroke-width:0.83px;stroke-linecap:butt;stroke-linejoin:round;stroke-miterlimit:2;"></path><path d="M542.9,158.912l3.338,0l0,3.338l-21.164,0l0,-3.338l10.834,0c-1.638,-1.89 -2.456,-4.053 -2.456,-6.488c0,-5.417 0.021,-12.682 0.063,-21.794c0.042,-9.112 0.063,-15.726 0.063,-19.841c0,-3.822 -0.105,-6.95 -0.315,-9.386c-0.21,-2.435 -0.756,-4.073 -1.638,-4.913c-0.588,-0.588 -1.701,-0.882 -3.338,-0.882c-0.756,0 -1.617,0.063 -2.583,0.189l-0.378,-3.338c1.008,-0.126 1.995,-0.189 2.961,-0.189c0.588,0 1.396,0.053 2.425,0.157c1.028,0.105 2.089,0.62 3.181,1.544c1.343,1.175 2.183,3.044 2.519,5.606c0.336,2.561 0.504,6.298 0.504,11.212c0,4.115 -0.01,10.729 -0.031,19.841c-0.021,9.112 -0.053,16.377 -0.095,21.794c0.042,1.763 0.672,3.275 1.89,4.535c1.175,1.176 2.582,1.827 4.22,1.953Zm-7.874,-82.578l0,8.44l-3.338,0l0,-8.44l3.338,0Z" style="fill:#595959;fill-rule:nonzero;stroke:#595959;stroke-width:0.83px;stroke-linecap:butt;stroke-linejoin:round;stroke-miterlimit:2;"></path><path d="M591.241,155.762c0,0.84 0.168,1.596 0.504,2.268c0.336,0.672 0.734,1.249 1.196,1.732c0.462,0.483 0.861,0.861 1.197,1.134c0.336,0.273 0.525,0.409 0.567,0.409l-1.764,2.898c-0.084,-0.042 -0.378,-0.252 -0.881,-0.63c-0.504,-0.378 -1.082,-0.935 -1.733,-1.669c-0.65,-0.735 -1.217,-1.617 -1.7,-2.646c-0.483,-1.029 -0.746,-2.194 -0.788,-3.496c0.042,-1.931 0.063,-4.262 0.063,-6.991c0,-2.772 -0.021,-6.845 -0.063,-12.22c-0.042,-5.375 -0.084,-11.002 -0.126,-16.881c-0.042,-4.913 -0.063,-7.769 -0.063,-8.566c0,-7.643 -2.351,-12.766 -7.054,-15.37c-1.512,-0.671 -3.024,-1.007 -4.535,-1.007c-2.478,0 -4.914,0.881 -7.307,2.645c-2.352,1.974 -4.042,5.008 -5.071,9.102c-1.028,4.094 -1.669,8.43 -1.921,13.007c-0.252,4.577 -0.378,8.608 -0.378,12.094c0,9.07 -0.021,18.182 -0.063,27.337l8.882,0l0,3.338l-21.101,0l0,-3.338l8.881,0c0,-9.869 0.01,-19.716 0.031,-29.542c0.021,-9.826 0.032,-16.02 0.032,-18.581c0,-3.528 -0.126,-6.52 -0.378,-8.976c-0.252,-2.457 -0.861,-4.147 -1.827,-5.071c-0.756,-0.714 -1.994,-1.071 -3.716,-1.071c-0.588,0 -1.239,0.042 -1.953,0.126l-0.378,-3.338c0.84,-0.084 1.617,-0.126 2.331,-0.126c2.604,0 4.577,0.63 5.921,1.89c1.932,1.763 2.981,4.703 3.149,8.818c1.218,-3.611 3.045,-6.383 5.48,-8.314c3.108,-2.226 6.236,-3.339 9.386,-3.339c1.973,0 3.968,0.441 5.983,1.323c1.176,0.546 2.457,1.491 3.843,2.834c1.385,1.344 2.593,3.255 3.622,5.732c1.028,2.478 1.543,5.753 1.543,9.827l0,8.503c0.042,5.879 0.084,12.419 0.126,19.621c0.042,7.201 0.063,12.713 0.063,16.534Z" style="fill:#595959;fill-rule:nonzero;stroke:#595959;stroke-width:0.83px;stroke-linecap:butt;stroke-linejoin:round;stroke-miterlimit:2;"></path><path d="M637.062,167.226c0,1.302 -0.073,2.824 -0.22,4.567c-0.147,1.742 -0.683,3.559 -1.607,5.448c-2.351,4.493 -6.949,6.971 -13.794,7.433c-0.672,0.042 -1.323,0.063 -1.953,0.063c-4.871,0 -8.818,-1.344 -11.841,-4.031c-2.856,-2.604 -4.557,-5.963 -5.103,-10.079c-0.293,-2.225 -0.44,-4.22 -0.44,-5.983c0,-2.142 0.304,-4.273 0.913,-6.394c0.609,-2.12 2.11,-4.398 4.504,-6.834c-1.218,-0.63 -2.079,-1.554 -2.583,-2.771c-0.336,-1.008 -0.504,-1.995 -0.504,-2.961c0,-1.722 0.546,-3.317 1.638,-4.787c-2.856,-2.226 -4.283,-5.417 -4.283,-9.574c0,-1.512 -0.021,-3.444 -0.063,-5.795l0,-0.252c-0.042,-3.15 -0.063,-6.341 -0.063,-9.574c0,-3.234 0.063,-5.879 0.189,-7.937c0.378,-5.249 1.595,-9.154 3.653,-11.716c2.519,-3.317 6.488,-4.976 11.905,-4.976c4.073,0 7.348,0.735 9.826,2.205c1.218,-3.024 3.8,-4.535 7.747,-4.535c0.714,0 1.491,0.063 2.331,0.189l-0.315,3.338c-0.714,-0.084 -1.386,-0.126 -2.016,-0.126c-1.301,0 -2.372,0.241 -3.212,0.724c-0.84,0.483 -1.428,1.376 -1.764,2.677c0.21,0.21 0.42,0.462 0.63,0.756c1.134,1.554 1.921,3.255 2.362,5.102c0.441,1.848 0.704,3.738 0.788,5.669c0.084,0.84 0.126,2.394 0.126,4.661c0,2.31 -0.011,4.819 -0.032,7.527c-0.021,2.709 -0.031,5.092 -0.031,7.15c-0.042,1.637 -0.063,2.666 -0.063,3.086c0,2.52 -0.357,4.609 -1.071,6.267c-0.714,1.659 -1.606,3.003 -2.677,4.032c-1.071,1.028 -2.131,1.795 -3.181,2.299c-1.848,0.84 -3.632,1.354 -5.354,1.543c-1.722,0.189 -3.086,0.283 -4.094,0.283l-0.756,0c-2.856,0 -5.396,-0.441 -7.622,-1.322c-0.756,0.923 -1.144,1.826 -1.165,2.708c-0.021,0.882 0.073,1.617 0.283,2.205c0.42,0.798 1.554,1.343 3.402,1.637c1.847,0.294 3.716,0.483 5.606,0.567l0.063,0c1.301,0.084 2.582,0.189 3.842,0.315c2.1,0.168 4.094,0.452 5.984,0.851c1.89,0.399 3.611,1.102 5.165,2.11c3.233,2.225 4.85,6.152 4.85,11.779l0,2.456Zm-31.935,-41.95c0.042,2.477 0.063,4.493 0.063,6.047c0,2.519 0.588,4.44 1.764,5.763c1.175,1.323 2.645,2.226 4.409,2.709c1.763,0.483 3.527,0.724 5.291,0.724l1.134,0c1.931,0 3.852,-0.252 5.763,-0.756c1.911,-0.504 3.538,-1.533 4.882,-3.086c1.343,-1.554 2.015,-3.948 2.015,-7.181l0,-3.086c0,-1.932 0.011,-4.242 0.032,-6.929c0.021,-2.688 0.031,-5.186 0.031,-7.496c0,-2.309 -0.021,-3.863 -0.063,-4.661c-0.084,-1.679 -0.304,-3.296 -0.661,-4.85c-0.357,-1.554 -0.976,-2.939 -1.858,-4.157c-1.89,-2.562 -5.396,-3.842 -10.519,-3.842c-3.99,0 -6.929,1.049 -8.819,3.149c-1.889,2.1 -3.023,5.564 -3.401,10.393c-0.126,1.974 -0.189,4.556 -0.189,7.748c0,3.191 0.042,6.361 0.126,9.511Zm16.062,56.059c4.157,-0.377 7.128,-1.375 8.913,-2.991c1.784,-1.617 2.845,-3.517 3.181,-5.701c0.294,-1.638 0.441,-3.233 0.441,-4.787c0,-0.546 -0.021,-1.071 -0.063,-1.575l0,-1.574c0,-4.41 -1.05,-7.339 -3.15,-8.787c-2.099,-1.449 -5.354,-2.278 -9.763,-2.488l-0.063,0c-1.134,-0.126 -2.372,-0.231 -3.716,-0.315c-2.058,-0.126 -4.01,-0.336 -5.858,-0.63l0.063,0.063c-2.436,2.183 -4.073,4.472 -4.913,6.866c-0.504,1.385 -0.756,3.191 -0.756,5.417c0,1.595 0.126,3.401 0.378,5.417c0.084,1.007 0.514,2.435 1.291,4.283c0.777,1.847 2.257,3.485 4.441,4.913c1.973,1.26 4.724,1.889 8.251,1.889l1.323,0Z" style="fill:#595959;fill-rule:nonzero;stroke:#595959;stroke-width:0.83px;stroke-linecap:butt;stroke-linejoin:round;stroke-miterlimit:2;"></path><path d="M711.257,140.645c0.042,0.168 0.063,0.483 0.063,0.945c0,0.672 -0.053,1.868 -0.158,3.59c-0.105,1.722 -0.619,3.958 -1.543,6.708c-0.924,2.751 -2.519,5.281 -4.787,7.591c-3.317,3.191 -7.684,4.787 -13.101,4.787c-1.134,0 -2.31,-0.063 -3.528,-0.189c-3.443,-0.462 -6.267,-1.124 -8.472,-1.984c-2.204,-0.861 -3.832,-1.67 -4.881,-2.426c-1.05,-0.755 -1.617,-1.196 -1.701,-1.322l-0.441,-0.504l0,-16.314l3.338,0l0,14.865c0.63,0.546 1.974,1.281 4.032,2.205c2.057,0.924 4.892,1.616 8.503,2.078c1.092,0.126 2.163,0.189 3.213,0.189c4.451,0 8.02,-1.281 10.708,-3.842c1.511,-1.47 2.645,-3.107 3.401,-4.913c0.756,-1.806 1.27,-3.559 1.543,-5.26c0.273,-1.7 0.42,-3.107 0.441,-4.22c0.021,-1.113 0.011,-1.711 -0.031,-1.795l0,-0.126c0,-4.451 -0.515,-8.125 -1.544,-11.023c-1.029,-2.897 -2.414,-5.28 -4.157,-7.149c-1.743,-1.869 -3.727,-3.422 -5.952,-4.661c-2.226,-1.239 -4.556,-2.383 -6.992,-3.433c-2.73,-1.176 -5.344,-2.509 -7.842,-4c-2.499,-1.491 -4.598,-3.464 -6.299,-5.921c-1.701,-2.456 -2.74,-5.7 -3.118,-9.731c-0.126,-1.176 -0.189,-2.667 -0.189,-4.473l0,-2.834c0,-1.47 0.378,-3.506 1.134,-6.11c0.756,-2.603 2.142,-4.934 4.157,-6.992c3.234,-3.107 7.769,-4.661 13.606,-4.661c1.385,0 2.813,0.084 4.283,0.252c3.485,0.462 6.32,1.123 8.503,1.984c2.184,0.861 3.811,1.669 4.882,2.425c1.071,0.756 1.627,1.197 1.669,1.323l0.504,0.504l0,16.062l-3.401,0l0,-14.613c-0.63,-0.546 -1.963,-1.281 -4,-2.205c-2.037,-0.924 -4.882,-1.638 -8.535,-2.141c-1.344,-0.168 -2.625,-0.252 -3.842,-0.252c-4.955,0 -8.714,1.238 -11.275,3.716c-2.436,2.645 -3.8,5.753 -4.094,9.322c-0.126,1.764 -0.189,3.339 -0.189,4.724c0,1.428 0.063,2.667 0.189,3.717c0.503,4.955 2.173,8.597 5.007,10.928c2.835,2.331 6.246,4.294 10.236,5.889c3.317,1.386 6.54,3.097 9.668,5.134c3.129,2.037 5.722,4.934 7.779,8.692c2.058,3.759 3.129,8.913 3.213,15.464Z" style="fill:#595959;fill-rule:nonzero;stroke:#595959;stroke-width:0.83px;stroke-linecap:butt;stroke-linejoin:round;stroke-miterlimit:2;"></path><path d="M750.716,157.022l2.331,2.457c-0.042,0.084 -0.493,0.43 -1.354,1.039c-0.861,0.609 -2.173,1.249 -3.937,1.921c-1.764,0.672 -4.052,1.176 -6.866,1.512c-0.966,0.126 -1.91,0.189 -2.834,0.189c-4.535,0 -8.294,-1.302 -11.275,-3.906c-1.932,-1.805 -3.339,-3.768 -4.22,-5.889c-0.882,-2.121 -1.449,-4 -1.701,-5.637c-0.21,-1.386 -0.315,-2.31 -0.315,-2.772l0,-0.189c-0.042,-0.294 -0.126,-1.543 -0.252,-3.748c-0.126,-2.204 -0.241,-4.892 -0.346,-8.062c-0.105,-3.171 -0.158,-6.268 -0.158,-9.291c0,-1.47 -0.021,-2.981 -0.063,-4.535c-0.042,-1.26 -0.063,-2.499 -0.063,-3.716c0,-3.654 0.221,-7.486 0.662,-11.496c0.44,-4.01 1.963,-7.443 4.566,-10.298c2.646,-2.646 6.299,-3.969 10.96,-3.969c3.485,0 6.309,0.473 8.472,1.418c2.163,0.944 3.832,2.194 5.008,3.747c1.175,1.554 2.005,3.265 2.488,5.134c0.483,1.869 0.787,3.748 0.913,5.637c0.084,1.554 0.115,3.412 0.094,5.575c-0.021,2.162 -0.052,3.832 -0.094,5.007l0,0.252c-0.21,6.593 -3.59,11.002 -10.141,13.228c-2.688,0.84 -5.585,1.365 -8.692,1.575c-2.562,0.168 -5.082,0.252 -7.559,0.252l-3.087,0c0.126,2.855 0.242,5.469 0.347,7.842c0.105,2.372 0.199,4.125 0.283,5.259l0,0.189c0,0.252 0.084,1.008 0.252,2.268c0.168,1.259 0.62,2.813 1.355,4.661c0.734,1.847 1.921,3.527 3.558,5.039c2.31,2.015 5.312,3.023 9.008,3.023c0.798,0 1.637,-0.042 2.519,-0.126c2.352,-0.294 4.273,-0.714 5.764,-1.259c1.49,-0.546 2.593,-1.061 3.307,-1.544c0.713,-0.483 1.07,-0.745 1.07,-0.787Zm-27.588,-32.376c0,1.428 0.021,2.918 0.062,4.472l1.638,0c4.619,0 8.745,-0.241 12.377,-0.724c3.633,-0.483 6.53,-1.564 8.693,-3.244c2.162,-1.68 3.307,-4.304 3.433,-7.874l0,-0.189c0.042,-1.175 0.084,-2.813 0.126,-4.913l0,-2.015c0,-1.26 -0.021,-2.373 -0.063,-3.339c-0.084,-1.469 -0.315,-3.002 -0.693,-4.598c-0.378,-1.596 -1.071,-3.044 -2.079,-4.346c-2.015,-2.604 -5.606,-3.905 -10.771,-3.905c-3.779,0 -6.614,0.987 -8.503,2.96c-2.184,2.394 -3.465,5.69 -3.843,9.889c-0.294,2.982 -0.44,6.089 -0.44,9.323c0,1.301 0.021,2.624 0.063,3.968l0,4.535Z" style="fill:#595959;fill-rule:nonzero;stroke:#595959;stroke-width:0.83px;stroke-linecap:butt;stroke-linejoin:round;stroke-miterlimit:2;"></path><path d="M790.995,155.762c0,0.84 0.168,1.606 0.504,2.299c0.336,0.693 0.724,1.281 1.165,1.764c0.441,0.483 0.819,0.85 1.134,1.102c0.315,0.252 0.493,0.378 0.535,0.378l-1.764,2.898c-0.126,-0.042 -0.577,-0.389 -1.354,-1.04c-0.777,-0.651 -1.543,-1.585 -2.299,-2.803c-1.05,0.798 -2.54,1.596 -4.472,2.394c-1.932,0.798 -4.304,1.197 -7.118,1.197l-0.126,0c-5.165,-0.126 -8.997,-1.239 -11.495,-3.339c-2.499,-2.099 -4.168,-4.514 -5.008,-7.243c-0.839,-2.73 -1.343,-5.102 -1.511,-7.118l-0.063,-0.378c-0.21,-1.974 -0.357,-5.291 -0.441,-9.952c-0.042,-2.31 -0.063,-4.682 -0.063,-7.118c0,-2.435 0.021,-5.553 0.063,-9.354c0.042,-3.8 0.189,-7.317 0.441,-10.55c0,-1.638 0.367,-3.863 1.102,-6.677c0.735,-2.813 2.372,-5.385 4.913,-7.716c2.541,-2.33 6.561,-3.58 12.062,-3.748l0.126,0c2.31,0 4.325,0.284 6.047,0.851c1.722,0.567 3.129,1.207 4.22,1.921l0,-5.858c0,-3.527 -0.115,-6.519 -0.346,-8.976c-0.231,-2.456 -0.85,-4.147 -1.858,-5.071c-0.756,-0.713 -2.016,-1.07 -3.78,-1.07c-0.545,0 -1.154,0.042 -1.826,0.126l-0.378,-3.339c0.798,-0.084 1.533,-0.126 2.204,-0.126c2.688,0 4.704,0.63 6.047,1.89c1.512,1.386 2.446,3.433 2.803,6.141c0.357,2.709 0.536,6.184 0.536,10.425l0,68.09Zm-13.669,4.787c1.932,0 3.612,-0.231 5.039,-0.693c1.428,-0.461 2.583,-0.965 3.465,-1.511c0.882,-0.546 1.511,-1.008 1.889,-1.386c-0.084,-0.378 -0.126,-0.777 -0.126,-1.197c0.042,-2.897 0.063,-8.629 0.063,-17.196c0,-8.566 -0.01,-16.985 -0.031,-25.258c-0.021,-8.272 -0.032,-13.395 -0.032,-15.369l0,-0.315c-0.378,-0.336 -1.018,-0.777 -1.921,-1.323c-0.903,-0.546 -2.047,-1.05 -3.433,-1.511c-1.385,-0.462 -3.023,-0.693 -4.913,-0.693l-0.126,0c-3.947,0.084 -6.949,0.85 -9.007,2.299c-2.058,1.448 -3.485,3.307 -4.283,5.574c-0.798,2.268 -1.281,4.661 -1.449,7.181c-0.21,3.191 -0.357,7.286 -0.441,12.283c-0.042,2.477 -0.063,4.913 -0.063,7.306c0,2.352 0.032,5.239 0.095,8.661c0.063,3.422 0.199,6.099 0.409,8.031l0.063,0.378c0.168,1.428 0.441,2.982 0.819,4.661c0.378,1.68 1.05,3.297 2.015,4.85c2.31,3.486 6.257,5.228 11.842,5.228l0.126,0Z" style="fill:#595959;fill-rule:nonzero;stroke:#595959;stroke-width:0.83px;stroke-linecap:butt;stroke-linejoin:round;stroke-miterlimit:2;"></path><path d="M838.58,155.762c0,0.84 0.168,1.596 0.504,2.268c0.336,0.672 0.734,1.249 1.196,1.732c0.462,0.483 0.861,0.861 1.197,1.134c0.336,0.273 0.525,0.409 0.567,0.409l-1.764,2.898c-0.084,-0.042 -0.378,-0.252 -0.881,-0.63c-0.504,-0.378 -1.082,-0.935 -1.733,-1.669c-0.651,-0.735 -1.217,-1.617 -1.7,-2.646c-0.483,-1.029 -0.746,-2.194 -0.788,-3.496c0.042,-1.931 0.063,-4.262 0.063,-6.991c0,-2.772 -0.021,-6.845 -0.063,-12.22c-0.042,-5.375 -0.084,-11.002 -0.126,-16.881c-0.042,-4.913 -0.063,-7.769 -0.063,-8.566c0,-7.643 -2.351,-12.766 -7.054,-15.37c-1.512,-0.671 -3.024,-1.007 -4.535,-1.007c-2.478,0 -4.914,0.881 -7.307,2.645c-2.352,1.974 -4.042,5.008 -5.071,9.102c-1.028,4.094 -1.669,8.43 -1.921,13.007c-0.252,4.577 -0.378,8.608 -0.378,12.094c0,9.07 -0.021,18.182 -0.063,27.337l8.882,0l0,3.338l-21.101,0l0,-3.338l8.881,0c0,-9.869 0.01,-19.716 0.031,-29.542c0.021,-9.826 0.032,-16.02 0.032,-18.581c0,-3.528 -0.126,-6.52 -0.378,-8.976c-0.252,-2.457 -0.861,-4.147 -1.827,-5.071c-0.756,-0.714 -1.994,-1.071 -3.716,-1.071c-0.588,0 -1.239,0.042 -1.953,0.126l-0.378,-3.338c0.84,-0.084 1.617,-0.126 2.331,-0.126c2.603,0 4.577,0.63 5.921,1.89c1.932,1.763 2.981,4.703 3.149,8.818c1.218,-3.611 3.045,-6.383 5.48,-8.314c3.108,-2.226 6.236,-3.339 9.386,-3.339c1.973,0 3.968,0.441 5.983,1.323c1.176,0.546 2.457,1.491 3.843,2.834c1.385,1.344 2.593,3.255 3.622,5.732c1.028,2.478 1.543,5.753 1.543,9.827l0,8.503c0.042,5.879 0.084,12.419 0.126,19.621c0.042,7.201 0.063,12.713 0.063,16.534Z" style="fill:#595959;fill-rule:nonzero;stroke:#595959;stroke-width:0.83px;stroke-linecap:butt;stroke-linejoin:round;stroke-miterlimit:2;"></path><path d="M879.488,155.069c0.042,0.84 0.231,1.596 0.567,2.268c0.336,0.672 0.724,1.249 1.165,1.732c0.441,0.483 0.829,0.861 1.165,1.134c0.336,0.273 0.525,0.409 0.567,0.409l-1.763,2.898c-0.084,-0.042 -0.347,-0.231 -0.788,-0.567c-0.441,-0.336 -0.966,-0.819 -1.574,-1.449c-0.609,-0.63 -1.166,-1.407 -1.67,-2.33c-1.007,0.965 -2.404,1.921 -4.188,2.866c-1.785,0.944 -4,1.585 -6.646,1.921c-1.217,0.126 -2.372,0.189 -3.464,0.189c-4.577,0 -8.146,-1.155 -10.708,-3.465c-2.268,-2.267 -3.611,-4.808 -4.031,-7.621c-0.378,-2.226 -0.567,-4.241 -0.567,-6.047c0,-0.462 0.021,-0.924 0.063,-1.386l0,-1.071c0,-7.096 2.078,-12.114 6.236,-15.054c1.847,-1.218 3.831,-2.1 5.952,-2.645c2.121,-0.546 4.21,-0.966 6.267,-1.26c3.276,-0.42 5.774,-1.05 7.496,-1.89c1.722,-0.84 2.604,-2.435 2.646,-4.787l0,-9.952c0.042,-0.042 0.052,-0.472 0.031,-1.291c-0.021,-0.819 -0.136,-1.858 -0.346,-3.118c-0.21,-1.26 -0.599,-2.562 -1.166,-3.906c-0.567,-1.343 -1.396,-2.561 -2.488,-3.653c-2.141,-2.015 -5.018,-3.023 -8.629,-3.023c-0.756,0 -1.554,0.042 -2.394,0.126c-2.729,0.378 -4.881,0.892 -6.456,1.543c-1.575,0.651 -2.635,1.207 -3.181,1.669l0,16.125l-3.401,0l0,-17.7l0.567,-0.504c0.042,-0.084 0.483,-0.419 1.322,-1.007c0.84,-0.588 2.152,-1.229 3.937,-1.921c1.785,-0.693 4.063,-1.208 6.834,-1.544c0.966,-0.126 1.911,-0.189 2.835,-0.189c4.535,0 8.167,1.323 10.897,3.969c1.763,1.805 3.002,3.779 3.716,5.92c0.714,2.142 1.134,4.032 1.26,5.669c0.042,1.092 0.063,1.911 0.063,2.457l0,6.267c0,3.675 -0.011,8.084 -0.032,13.228c-0.021,5.144 -0.042,10.193 -0.063,15.149c-0.021,4.955 -0.031,8.902 -0.031,11.841Zm-3.338,0.378l0,-0.378c0.042,-10.414 0.063,-20.114 0.063,-29.1c-1.302,0.882 -2.803,1.532 -4.504,1.952c-1.701,0.42 -3.412,0.756 -5.134,1.008c-2.687,0.336 -5.217,0.893 -7.59,1.669c-2.372,0.777 -4.293,2.194 -5.763,4.252c-1.47,2.058 -2.205,5.291 -2.205,9.7l0,1.071c-0.042,0.504 -0.063,1.029 -0.063,1.575c0,1.47 0.147,3.233 0.441,5.291c0.294,2.057 1.302,3.947 3.024,5.669c1.889,1.721 4.682,2.582 8.377,2.582c0.966,0 2.016,-0.063 3.149,-0.189c2.982,-0.42 5.312,-1.217 6.992,-2.393c1.68,-1.176 2.751,-2.079 3.213,-2.709Z" style="fill:#595959;fill-rule:nonzero;stroke:#595959;stroke-width:0.83px;stroke-linecap:butt;stroke-linejoin:round;stroke-miterlimit:2;"></path><path d="M342.613,181.61l3.402,0l0,90.64l-3.402,0l0,-43.525l-32.376,0l0,43.525l-3.338,0l0,-90.64l3.338,0l0,43.777l32.376,0l0,-43.777Z" style="fill:#595959;fill-rule:nonzero;stroke:#595959;stroke-width:0.83px;stroke-linecap:butt;stroke-linejoin:round;stroke-miterlimit:2;"></path><path d="M387.427,267.022l2.33,2.457c-0.042,0.084 -0.493,0.43 -1.354,1.039c-0.861,0.609 -2.173,1.249 -3.937,1.921c-1.763,0.672 -4.052,1.176 -6.865,1.512c-0.966,0.126 -1.911,0.189 -2.835,0.189c-4.535,0 -8.293,-1.302 -11.275,-3.906c-1.932,-1.805 -3.338,-3.768 -4.22,-5.889c-0.882,-2.121 -1.449,-4 -1.701,-5.637c-0.21,-1.386 -0.315,-2.31 -0.315,-2.772l0,-0.189c-0.042,-0.294 -0.126,-1.543 -0.252,-3.748c-0.126,-2.204 -0.241,-4.892 -0.346,-8.062c-0.105,-3.171 -0.158,-6.268 -0.158,-9.291c0,-1.47 -0.021,-2.981 -0.063,-4.535c-0.042,-1.26 -0.063,-2.499 -0.063,-3.716c0,-3.654 0.221,-7.486 0.662,-11.496c0.441,-4.01 1.963,-7.443 4.566,-10.298c2.646,-2.646 6.299,-3.969 10.96,-3.969c3.486,0 6.31,0.473 8.472,1.418c2.163,0.944 3.832,2.194 5.008,3.747c1.176,1.554 2.005,3.265 2.488,5.134c0.483,1.869 0.787,3.748 0.913,5.637c0.084,1.554 0.116,3.412 0.095,5.575c-0.021,2.162 -0.053,3.832 -0.095,5.007l0,0.252c-0.21,6.593 -3.59,11.002 -10.141,13.228c-2.687,0.84 -5.585,1.365 -8.692,1.575c-2.562,0.168 -5.081,0.252 -7.559,0.252l-3.086,0c0.126,2.855 0.241,5.469 0.346,7.842c0.105,2.372 0.2,4.125 0.284,5.259l0,0.189c0,0.252 0.084,1.008 0.252,2.268c0.168,1.259 0.619,2.813 1.354,4.661c0.735,1.847 1.921,3.527 3.559,5.039c2.309,2.015 5.312,3.023 9.007,3.023c0.798,0 1.638,-0.042 2.52,-0.126c2.351,-0.294 4.272,-0.714 5.763,-1.259c1.491,-0.546 2.593,-1.061 3.307,-1.544c0.714,-0.483 1.071,-0.745 1.071,-0.787Zm-27.589,-32.376c0,1.428 0.021,2.918 0.063,4.472l1.637,0c4.62,0 8.745,-0.241 12.378,-0.724c3.632,-0.483 6.529,-1.564 8.692,-3.244c2.163,-1.68 3.307,-4.304 3.433,-7.874l0,-0.189c0.042,-1.175 0.084,-2.813 0.126,-4.913l0,-2.015c0,-1.26 -0.021,-2.373 -0.063,-3.339c-0.084,-1.469 -0.315,-3.002 -0.693,-4.598c-0.378,-1.596 -1.071,-3.044 -2.079,-4.346c-2.015,-2.604 -5.606,-3.905 -10.771,-3.905c-3.779,0 -6.613,0.987 -8.503,2.96c-2.184,2.394 -3.464,5.69 -3.842,9.889c-0.294,2.982 -0.441,6.089 -0.441,9.323c0,1.301 0.021,2.624 0.063,3.968l0,4.535Z" style="fill:#595959;fill-rule:nonzero;stroke:#595959;stroke-width:0.83px;stroke-linecap:butt;stroke-linejoin:round;stroke-miterlimit:2;"></path><path d="M430.539,204.412l0.693,0.504l0,17.825l-3.338,0l0,-15.999c-0.756,-0.462 -1.911,-0.924 -3.464,-1.386c-1.176,-0.377 -2.478,-0.566 -3.906,-0.566c-0.462,0 -1.312,0.052 -2.551,0.157c-1.238,0.105 -2.887,0.913 -4.944,2.425c-2.226,1.848 -3.853,4.672 -4.882,8.472c-1.029,3.8 -1.69,7.884 -1.984,12.251c-0.294,3.863 -0.441,7.412 -0.441,10.645l0,1.197c0,9.616 -0.021,19.274 -0.063,28.975l8.818,0l0,3.338l-21.101,0l0,-3.338l8.945,0l0,-48.123c0,-3.528 -0.126,-6.52 -0.378,-8.976c-0.252,-2.457 -0.861,-4.147 -1.827,-5.071c-0.756,-0.714 -1.994,-1.071 -3.716,-1.071c-0.588,0 -1.239,0.042 -1.953,0.126l-0.378,-3.338c0.84,-0.084 1.617,-0.126 2.331,-0.126c2.603,0 4.598,0.63 5.984,1.89c1.889,1.763 2.918,4.703 3.086,8.818c1.218,-3.611 3.045,-6.383 5.48,-8.314c2.898,-2.226 6.089,-3.339 9.574,-3.339c1.218,0 2.478,0.147 3.78,0.441c1.805,0.462 3.275,0.987 4.409,1.575c1.134,0.588 1.742,0.924 1.826,1.008Z" style="fill:#595959;fill-rule:nonzero;stroke:#595959;stroke-width:0.83px;stroke-linecap:butt;stroke-linejoin:round;stroke-miterlimit:2;"></path><path d="M467.542,255.558l0,0.567c0,0.546 -0.042,1.512 -0.126,2.897c-0.084,1.386 -0.482,3.139 -1.196,5.26c-0.714,2.121 -1.953,4.084 -3.717,5.889c-2.729,2.646 -6.361,3.969 -10.897,3.969c-0.923,0 -1.868,-0.063 -2.834,-0.189c-2.772,-0.336 -5.05,-0.84 -6.834,-1.512c-1.785,-0.672 -3.108,-1.312 -3.969,-1.921c-0.86,-0.609 -1.312,-0.955 -1.354,-1.039l-0.504,-0.504l0,-17.7l3.402,0l0,16.188c0.546,0.42 1.606,0.966 3.181,1.638c1.574,0.671 3.726,1.175 6.456,1.511c0.84,0.084 1.638,0.126 2.393,0.126c3.654,0 6.53,-0.987 8.63,-2.96c1.092,-1.134 1.921,-2.373 2.488,-3.716c0.567,-1.344 0.955,-2.646 1.165,-3.906c0.21,-1.26 0.315,-2.288 0.315,-3.086c0.042,-0.42 0.063,-0.735 0.063,-0.945c0,-0.252 -0.021,-0.378 -0.063,-0.378l0,-0.126c0,-4.493 -0.693,-7.978 -2.079,-10.456c-1.385,-2.477 -3.191,-4.409 -5.417,-5.795c-2.225,-1.386 -4.598,-2.582 -7.117,-3.59c-3.402,-1.302 -6.457,-3.024 -9.165,-5.165c-2.709,-2.142 -4.315,-5.564 -4.819,-10.267c-0.126,-0.84 -0.189,-1.827 -0.189,-2.961c0,-1.302 0.116,-3.149 0.347,-5.543c0.231,-2.393 1.522,-4.871 3.874,-7.432c2.645,-2.52 6.361,-3.78 11.149,-3.78c1.133,0 2.309,0.063 3.527,0.189c2.771,0.336 5.049,0.851 6.834,1.544c1.785,0.692 3.108,1.333 3.968,1.921c0.861,0.588 1.313,0.923 1.355,1.007l0.504,0.504l0,17.7l-3.402,0l0,-16.188c-0.546,-0.42 -1.606,-0.966 -3.181,-1.638c-1.574,-0.671 -3.727,-1.175 -6.456,-1.511c-1.092,-0.126 -2.121,-0.189 -3.086,-0.189c-3.948,0 -6.908,0.966 -8.882,2.897c-1.763,1.974 -2.771,4.283 -3.023,6.929c-0.084,1.302 -0.126,2.477 -0.126,3.527c0,1.05 0.042,1.974 0.126,2.772c0.42,3.695 1.742,6.414 3.968,8.157c2.226,1.742 4.892,3.223 8,4.44c2.015,0.798 3.989,1.722 5.92,2.772c1.932,1.05 3.696,2.414 5.291,4.094c3.654,3.779 5.48,9.112 5.48,15.999Z" style="fill:#595959;fill-rule:nonzero;stroke:#595959;stroke-width:0.83px;stroke-linecap:butt;stroke-linejoin:round;stroke-miterlimit:2;"></path><path d="M497.239,270.486l0.378,3.402c-0.84,0.084 -1.659,0.126 -2.457,0.126c-4.367,-0.042 -7.978,-1.323 -10.834,-3.843c-3.653,-3.401 -5.48,-8.293 -5.48,-14.676l0,-49.698l-8.062,0l0,-3.401l8.062,0l0,-13.102l3.402,0l0,13.102l14.424,0l0,3.401l-14.424,0l0,49.698c0,5.501 1.448,9.553 4.346,12.157c2.225,1.973 5.06,2.96 8.503,2.96c0.714,0 1.428,-0.042 2.142,-0.126Z" style="fill:#595959;fill-rule:nonzero;stroke:#595959;stroke-width:0.83px;stroke-linecap:butt;stroke-linejoin:round;stroke-miterlimit:2;"></path><path d="M533.549,267.022l2.33,2.457c-0.042,0.084 -0.493,0.43 -1.354,1.039c-0.861,0.609 -2.173,1.249 -3.937,1.921c-1.763,0.672 -4.052,1.176 -6.865,1.512c-0.966,0.126 -1.911,0.189 -2.835,0.189c-4.535,0 -8.293,-1.302 -11.275,-3.906c-1.931,-1.805 -3.338,-3.768 -4.22,-5.889c-0.882,-2.121 -1.449,-4 -1.701,-5.637c-0.21,-1.386 -0.315,-2.31 -0.315,-2.772l0,-0.189c-0.042,-0.294 -0.126,-1.543 -0.252,-3.748c-0.126,-2.204 -0.241,-4.892 -0.346,-8.062c-0.105,-3.171 -0.157,-6.268 -0.157,-9.291c0,-1.47 -0.021,-2.981 -0.063,-4.535c-0.042,-1.26 -0.063,-2.499 -0.063,-3.716c0,-3.654 0.22,-7.486 0.661,-11.496c0.441,-4.01 1.963,-7.443 4.567,-10.298c2.645,-2.646 6.298,-3.969 10.96,-3.969c3.485,0 6.309,0.473 8.471,1.418c2.163,0.944 3.832,2.194 5.008,3.747c1.176,1.554 2.005,3.265 2.488,5.134c0.483,1.869 0.787,3.748 0.913,5.637c0.084,1.554 0.116,3.412 0.095,5.575c-0.021,2.162 -0.053,3.832 -0.095,5.007l0,0.252c-0.21,6.593 -3.59,11.002 -10.141,13.228c-2.687,0.84 -5.585,1.365 -8.692,1.575c-2.562,0.168 -5.081,0.252 -7.559,0.252l-3.086,0c0.126,2.855 0.241,5.469 0.346,7.842c0.105,2.372 0.2,4.125 0.284,5.259l0,0.189c0,0.252 0.084,1.008 0.252,2.268c0.168,1.259 0.619,2.813 1.354,4.661c0.735,1.847 1.921,3.527 3.559,5.039c2.309,2.015 5.312,3.023 9.007,3.023c0.798,0 1.638,-0.042 2.52,-0.126c2.351,-0.294 4.272,-0.714 5.763,-1.259c1.491,-0.546 2.593,-1.061 3.307,-1.544c0.714,-0.483 1.071,-0.745 1.071,-0.787Zm-27.589,-32.376c0,1.428 0.021,2.918 0.063,4.472l1.638,0c4.619,0 8.744,-0.241 12.377,-0.724c3.632,-0.483 6.53,-1.564 8.692,-3.244c2.163,-1.68 3.307,-4.304 3.433,-7.874l0,-0.189c0.042,-1.175 0.084,-2.813 0.126,-4.913l0,-2.015c0,-1.26 -0.021,-2.373 -0.063,-3.339c-0.084,-1.469 -0.315,-3.002 -0.693,-4.598c-0.378,-1.596 -1.071,-3.044 -2.078,-4.346c-2.016,-2.604 -5.606,-3.905 -10.771,-3.905c-3.78,0 -6.614,0.987 -8.504,2.96c-2.183,2.394 -3.464,5.69 -3.842,9.889c-0.294,2.982 -0.441,6.089 -0.441,9.323c0,1.301 0.021,2.624 0.063,3.968l0,4.535Z" style="fill:#595959;fill-rule:nonzero;stroke:#595959;stroke-width:0.83px;stroke-linecap:butt;stroke-linejoin:round;stroke-miterlimit:2;"></path><path d="M549.451,265.762c0,0.84 0.168,1.606 0.504,2.299c0.336,0.693 0.713,1.281 1.133,1.764c0.42,0.483 0.798,0.85 1.134,1.102c0.336,0.252 0.525,0.378 0.567,0.378l-1.827,2.898c-0.126,-0.042 -0.577,-0.399 -1.354,-1.071c-0.777,-0.672 -1.554,-1.627 -2.33,-2.866c-0.777,-1.239 -1.187,-2.74 -1.229,-4.504l0,-68.09c0,-3.527 -0.115,-6.519 -0.346,-8.976c-0.231,-2.456 -0.85,-4.147 -1.858,-5.071c-0.756,-0.713 -2.037,-1.07 -3.843,-1.07c-0.545,0 -1.154,0.042 -1.826,0.126l-0.315,-3.339c0.798,-0.084 1.533,-0.126 2.204,-0.126c2.646,0 4.662,0.63 6.047,1.89c1.47,1.386 2.394,3.433 2.772,6.141c0.378,2.709 0.567,6.184 0.567,10.425l0,68.09Z" style="fill:#595959;fill-rule:nonzero;stroke:#595959;stroke-width:0.83px;stroke-linecap:butt;stroke-linejoin:round;stroke-miterlimit:2;"></path><path d="M591.808,265.069c0.042,0.84 0.231,1.596 0.567,2.268c0.335,0.672 0.724,1.249 1.165,1.732c0.441,0.483 0.829,0.861 1.165,1.134c0.336,0.273 0.525,0.409 0.567,0.409l-1.764,2.898c-0.084,-0.042 -0.346,-0.231 -0.787,-0.567c-0.441,-0.336 -0.966,-0.819 -1.575,-1.449c-0.609,-0.63 -1.165,-1.407 -1.669,-2.33c-1.008,0.965 -2.404,1.921 -4.189,2.866c-1.784,0.944 -3.999,1.585 -6.645,1.921c-1.218,0.126 -2.372,0.189 -3.464,0.189c-4.577,0 -8.147,-1.155 -10.708,-3.465c-2.268,-2.267 -3.612,-4.808 -4.032,-7.621c-0.377,-2.226 -0.566,-4.242 -0.566,-6.047c0,-0.462 0.021,-0.924 0.063,-1.386l0,-1.071c0,-7.096 2.078,-12.114 6.235,-15.054c1.848,-1.218 3.832,-2.1 5.953,-2.645c2.12,-0.546 4.21,-0.966 6.267,-1.26c3.276,-0.42 5.774,-1.05 7.496,-1.89c1.721,-0.84 2.603,-2.435 2.645,-4.787l0,-9.952c0.042,-0.042 0.053,-0.472 0.032,-1.291c-0.021,-0.819 -0.137,-1.859 -0.347,-3.118c-0.21,-1.26 -0.598,-2.562 -1.165,-3.906c-0.567,-1.343 -1.396,-2.561 -2.488,-3.653c-2.142,-2.015 -5.018,-3.023 -8.629,-3.023c-0.756,0 -1.554,0.042 -2.394,0.126c-2.729,0.378 -4.882,0.892 -6.456,1.543c-1.575,0.651 -2.635,1.207 -3.181,1.669l0,16.125l-3.402,0l0,-17.7l0.567,-0.504c0.042,-0.084 0.483,-0.419 1.323,-1.007c0.84,-0.588 2.152,-1.229 3.937,-1.921c1.785,-0.693 4.063,-1.208 6.834,-1.544c0.966,-0.126 1.911,-0.189 2.835,-0.189c4.535,0 8.167,1.323 10.897,3.969c1.763,1.805 3.002,3.779 3.716,5.92c0.714,2.142 1.134,4.032 1.26,5.669c0.042,1.092 0.063,1.911 0.063,2.457l0,6.267c0,3.675 -0.011,8.084 -0.032,13.228c-0.021,5.144 -0.042,10.193 -0.063,15.149c-0.021,4.955 -0.031,8.902 -0.031,11.841Zm-3.339,0.378l0,-0.378c0.042,-10.414 0.063,-20.114 0.063,-29.1c-1.302,0.882 -2.803,1.532 -4.503,1.952c-1.701,0.42 -3.412,0.756 -5.134,1.008c-2.687,0.336 -5.218,0.893 -7.59,1.669c-2.373,0.777 -4.294,2.194 -5.763,4.252c-1.47,2.058 -2.205,5.291 -2.205,9.7l0,1.071c-0.042,0.504 -0.063,1.029 -0.063,1.575c0,1.47 0.147,3.233 0.441,5.291c0.294,2.057 1.302,3.947 3.023,5.669c1.89,1.721 4.682,2.582 8.378,2.582c0.966,0 2.015,-0.063 3.149,-0.189c2.982,-0.42 5.312,-1.217 6.992,-2.393c1.68,-1.176 2.75,-2.079 3.212,-2.709Z" style="fill:#595959;fill-rule:nonzero;stroke:#595959;stroke-width:0.83px;stroke-linecap:butt;stroke-linejoin:round;stroke-miterlimit:2;"></path><path d="M632.401,223.434l-3.401,0l0,-15.81c-0.378,-0.336 -1.019,-0.777 -1.922,-1.323c-0.902,-0.546 -2.047,-1.05 -3.432,-1.511c-1.386,-0.462 -3.024,-0.693 -4.914,-0.693l-0.126,0c-5.584,0.042 -9.532,1.805 -11.841,5.291c-0.966,1.553 -1.638,3.17 -2.016,4.85c-0.378,1.679 -0.651,3.212 -0.819,4.598l-0.063,0.378c-0.21,1.932 -0.357,5.186 -0.441,9.763c-0.042,2.268 -0.063,4.598 -0.063,6.992c0,2.351 0.032,5.406 0.095,9.165c0.063,3.758 0.199,7.233 0.409,10.424c0.126,1.638 0.399,3.328 0.819,5.071c0.42,1.742 1.144,3.359 2.173,4.85c1.029,1.49 2.478,2.708 4.346,3.653c1.869,0.945 4.315,1.417 7.338,1.417l0.063,0c2.856,-0.084 5.155,-0.546 6.898,-1.385c1.742,-0.84 2.908,-1.554 3.496,-2.142l0,-15.747l3.401,0l0,17.133l-0.441,0.504c-0.084,0.126 -0.64,0.588 -1.669,1.385c-1.029,0.798 -2.52,1.596 -4.472,2.394c-1.953,0.798 -4.357,1.218 -7.213,1.26l-0.063,0c-6.76,0 -11.673,-2.31 -14.739,-6.929c-1.176,-1.932 -1.994,-3.895 -2.456,-5.889c-0.462,-1.995 -0.735,-3.769 -0.819,-5.323c-0.252,-3.233 -0.399,-7.391 -0.441,-12.472c-0.042,-2.561 -0.063,-5.06 -0.063,-7.495c0,-2.436 0.031,-5.396 0.094,-8.882c0.063,-3.485 0.2,-6.214 0.41,-8.188l0.063,-0.315c0.168,-2.016 0.672,-4.388 1.512,-7.118c0.839,-2.729 2.509,-5.144 5.007,-7.243c2.499,-2.1 6.33,-3.213 11.495,-3.339c2.856,0.042 5.26,0.452 7.213,1.229c1.952,0.776 3.443,1.574 4.472,2.393c1.029,0.819 1.585,1.291 1.669,1.417l0.441,0.441l0,17.196Z" style="fill:#595959;fill-rule:nonzero;stroke:#595959;stroke-width:0.83px;stroke-linecap:butt;stroke-linejoin:round;stroke-miterlimit:2;"></path><path d="M671.231,265.069c0.041,0.84 0.23,1.596 0.566,2.268c0.336,0.672 0.725,1.249 1.166,1.732c0.441,0.483 0.829,0.861 1.165,1.134c0.336,0.273 0.525,0.409 0.567,0.409l-1.764,2.898c-0.084,-0.042 -0.346,-0.231 -0.787,-0.567c-0.441,-0.336 -0.966,-0.819 -1.575,-1.449c-0.609,-0.63 -1.165,-1.407 -1.669,-2.33c-1.008,0.965 -2.404,1.921 -4.189,2.866c-1.784,0.944 -4,1.585 -6.645,1.921c-1.218,0.126 -2.373,0.189 -3.464,0.189c-4.578,0 -8.147,-1.155 -10.708,-3.465c-2.268,-2.267 -3.612,-4.808 -4.032,-7.621c-0.378,-2.226 -0.567,-4.242 -0.567,-6.047c0,-0.462 0.021,-0.924 0.063,-1.386l0,-1.071c0,-7.096 2.079,-12.114 6.236,-15.054c1.848,-1.218 3.832,-2.1 5.953,-2.645c2.12,-0.546 4.209,-0.966 6.267,-1.26c3.275,-0.42 5.774,-1.05 7.496,-1.89c1.721,-0.84 2.603,-2.435 2.645,-4.787l0,-9.952c0.042,-0.042 0.053,-0.472 0.032,-1.291c-0.021,-0.819 -0.137,-1.859 -0.347,-3.118c-0.21,-1.26 -0.598,-2.562 -1.165,-3.906c-0.567,-1.343 -1.396,-2.561 -2.488,-3.653c-2.142,-2.015 -5.018,-3.023 -8.63,-3.023c-0.755,0 -1.553,0.042 -2.393,0.126c-2.73,0.378 -4.882,0.892 -6.456,1.543c-1.575,0.651 -2.635,1.207 -3.181,1.669l0,16.125l-3.402,0l0,-17.7l0.567,-0.504c0.042,-0.084 0.483,-0.419 1.323,-1.007c0.84,-0.588 2.152,-1.229 3.937,-1.921c1.784,-0.693 4.062,-1.208 6.834,-1.544c0.966,-0.126 1.911,-0.189 2.834,-0.189c4.536,0 8.168,1.323 10.897,3.969c1.764,1.805 3.003,3.779 3.717,5.92c0.714,2.142 1.134,4.032 1.259,5.669c0.042,1.092 0.063,1.911 0.063,2.457l0,6.267c0,3.675 -0.01,8.084 -0.031,13.228c-0.021,5.144 -0.042,10.193 -0.063,15.149c-0.021,4.955 -0.031,8.902 -0.031,11.841Zm-3.339,0.378l0,-0.378c0.042,-10.414 0.063,-20.114 0.063,-29.1c-1.302,0.882 -2.803,1.532 -4.504,1.952c-1.7,0.42 -3.411,0.756 -5.133,1.008c-2.688,0.336 -5.218,0.893 -7.59,1.669c-2.373,0.777 -4.294,2.194 -5.764,4.252c-1.469,2.058 -2.204,5.291 -2.204,9.7l0,1.071c-0.042,0.504 -0.063,1.029 -0.063,1.575c0,1.47 0.147,3.233 0.441,5.291c0.294,2.057 1.301,3.947 3.023,5.669c1.89,1.721 4.682,2.582 8.378,2.582c0.965,0 2.015,-0.063 3.149,-0.189c2.981,-0.42 5.312,-1.217 6.992,-2.393c1.679,-1.176 2.75,-2.079 3.212,-2.709Z" style="fill:#595959;fill-rule:nonzero;stroke:#595959;stroke-width:0.83px;stroke-linecap:butt;stroke-linejoin:round;stroke-miterlimit:2;"></path><path d="M711.761,265.762c0,0.84 0.168,1.606 0.504,2.299c0.336,0.693 0.724,1.281 1.165,1.764c0.441,0.483 0.819,0.85 1.134,1.102c0.315,0.252 0.493,0.378 0.535,0.378l-1.763,2.898c-0.126,-0.042 -0.578,-0.389 -1.355,-1.04c-0.777,-0.651 -1.543,-1.585 -2.299,-2.803c-1.05,0.798 -2.54,1.596 -4.472,2.394c-1.932,0.798 -4.304,1.197 -7.118,1.197l-0.126,0c-5.165,-0.126 -8.996,-1.239 -11.495,-3.339c-2.499,-2.099 -4.168,-4.514 -5.008,-7.243c-0.839,-2.73 -1.343,-5.102 -1.511,-7.118l-0.063,-0.378c-0.21,-1.974 -0.357,-5.291 -0.441,-9.952c-0.042,-2.31 -0.063,-4.682 -0.063,-7.118c0,-2.435 0.021,-5.553 0.063,-9.354c0.042,-3.8 0.189,-7.317 0.441,-10.55c0,-1.638 0.367,-3.863 1.102,-6.677c0.735,-2.813 2.373,-5.385 4.913,-7.716c2.541,-2.33 6.561,-3.58 12.062,-3.748l0.126,0c2.31,0 4.326,0.284 6.047,0.851c1.722,0.567 3.129,1.207 4.22,1.921l0,-5.858c0,-3.527 -0.115,-6.519 -0.346,-8.976c-0.231,-2.456 -0.85,-4.147 -1.858,-5.071c-0.756,-0.713 -2.016,-1.07 -3.779,-1.07c-0.546,0 -1.155,0.042 -1.827,0.126l-0.378,-3.339c0.798,-0.084 1.533,-0.126 2.205,-0.126c2.687,0 4.703,0.63 6.046,1.89c1.512,1.386 2.446,3.433 2.803,6.141c0.357,2.709 0.536,6.184 0.536,10.425l0,68.09Zm-13.669,4.787c1.932,0 3.612,-0.231 5.039,-0.693c1.428,-0.461 2.583,-0.965 3.465,-1.511c0.882,-0.546 1.511,-1.008 1.889,-1.386c-0.084,-0.378 -0.126,-0.777 -0.126,-1.197c0.042,-2.897 0.063,-8.629 0.063,-17.196c0,-8.566 -0.01,-16.985 -0.031,-25.258c-0.021,-8.272 -0.032,-13.395 -0.032,-15.369l0,-0.315c-0.378,-0.336 -1.018,-0.777 -1.921,-1.323c-0.903,-0.546 -2.047,-1.05 -3.433,-1.511c-1.385,-0.462 -3.023,-0.693 -4.913,-0.693l-0.126,0c-3.947,0.084 -6.949,0.85 -9.007,2.299c-2.058,1.448 -3.485,3.307 -4.283,5.574c-0.798,2.268 -1.281,4.661 -1.449,7.181c-0.21,3.191 -0.357,7.286 -0.441,12.283c-0.042,2.477 -0.063,4.913 -0.063,7.306c0,2.352 0.032,5.239 0.095,8.661c0.063,3.422 0.199,6.099 0.409,8.031l0.063,0.378c0.168,1.428 0.441,2.982 0.819,4.661c0.378,1.68 1.05,3.297 2.016,4.85c2.309,3.486 6.256,5.228 11.841,5.228l0.126,0Z" style="fill:#595959;fill-rule:nonzero;stroke:#595959;stroke-width:0.83px;stroke-linecap:butt;stroke-linejoin:round;stroke-miterlimit:2;"></path><path d="M750.59,267.022l2.331,2.457c-0.042,0.084 -0.493,0.43 -1.354,1.039c-0.861,0.609 -2.173,1.249 -3.937,1.921c-1.764,0.672 -4.052,1.176 -6.866,1.512c-0.966,0.126 -1.91,0.189 -2.834,0.189c-4.535,0 -8.294,-1.302 -11.275,-3.906c-1.932,-1.805 -3.339,-3.768 -4.22,-5.889c-0.882,-2.121 -1.449,-4 -1.701,-5.637c-0.21,-1.386 -0.315,-2.31 -0.315,-2.772l0,-0.189c-0.042,-0.294 -0.126,-1.543 -0.252,-3.748c-0.126,-2.204 -0.241,-4.892 -0.346,-8.062c-0.105,-3.171 -0.158,-6.268 -0.158,-9.291c0,-1.47 -0.021,-2.981 -0.063,-4.535c-0.042,-1.26 -0.063,-2.499 -0.063,-3.716c0,-3.654 0.221,-7.486 0.662,-11.496c0.44,-4.01 1.963,-7.443 4.566,-10.298c2.646,-2.646 6.299,-3.969 10.96,-3.969c3.486,0 6.309,0.473 8.472,1.418c2.163,0.944 3.832,2.194 5.008,3.747c1.175,1.554 2.005,3.265 2.488,5.134c0.483,1.869 0.787,3.748 0.913,5.637c0.084,1.554 0.116,3.412 0.095,5.575c-0.021,2.162 -0.053,3.832 -0.095,5.007l0,0.252c-0.21,6.593 -3.59,11.002 -10.141,13.228c-2.688,0.84 -5.585,1.365 -8.692,1.575c-2.562,0.168 -5.082,0.252 -7.559,0.252l-3.086,0c0.125,2.855 0.241,5.469 0.346,7.842c0.105,2.372 0.199,4.125 0.283,5.259l0,0.189c0,0.252 0.084,1.008 0.252,2.268c0.168,1.259 0.62,2.813 1.355,4.661c0.734,1.847 1.921,3.527 3.558,5.039c2.31,2.015 5.312,3.023 9.008,3.023c0.798,0 1.637,-0.042 2.519,-0.126c2.352,-0.294 4.273,-0.714 5.764,-1.259c1.49,-0.546 2.593,-1.061 3.307,-1.544c0.713,-0.483 1.07,-0.745 1.07,-0.787Zm-27.588,-32.376c0,1.428 0.021,2.918 0.063,4.472l1.637,0c4.619,0 8.745,-0.241 12.377,-0.724c3.633,-0.483 6.53,-1.564 8.693,-3.244c2.162,-1.68 3.307,-4.304 3.433,-7.874l0,-0.189c0.042,-1.175 0.084,-2.813 0.126,-4.913l0,-2.015c0,-1.26 -0.021,-2.373 -0.063,-3.339c-0.084,-1.469 -0.315,-3.002 -0.693,-4.598c-0.378,-1.596 -1.071,-3.044 -2.079,-4.346c-2.015,-2.604 -5.606,-3.905 -10.771,-3.905c-3.779,0 -6.614,0.987 -8.503,2.96c-2.184,2.394 -3.465,5.69 -3.843,9.889c-0.293,2.982 -0.44,6.089 -0.44,9.323c0,1.301 0.021,2.624 0.063,3.968l0,4.535Z" style="fill:#595959;fill-rule:nonzero;stroke:#595959;stroke-width:0.83px;stroke-linecap:butt;stroke-linejoin:round;stroke-miterlimit:2;"></path><path d="M827.969,265.762c0,0.84 0.168,1.596 0.504,2.268c0.336,0.672 0.724,1.249 1.165,1.732c0.441,0.483 0.85,0.85 1.228,1.102l0.504,0.441l-1.7,2.898c-0.168,-0.042 -0.651,-0.399 -1.449,-1.071c-0.798,-0.672 -1.596,-1.627 -2.394,-2.866c-0.798,-1.239 -1.218,-2.74 -1.26,-4.504l0,-21.983c-0.042,-3.023 -0.063,-5.711 -0.063,-8.062l0,-0.504c-0.084,-6.719 -0.126,-11.422 -0.126,-14.109c0,-7.601 -2.414,-12.703 -7.243,-15.307c-1.596,-0.714 -3.171,-1.07 -4.724,-1.07c-2.52,0 -4.997,0.881 -7.433,2.645c-2.183,1.806 -3.758,4.609 -4.724,8.409c-0.966,3.8 -1.564,8 -1.795,12.598c-0.231,4.598 -0.347,8.996 -0.347,13.196l0,30.738l-3.401,-0.063c0.042,-3.401 0.063,-7.286 0.063,-11.653c0,-4.367 -0.01,-8.199 -0.031,-11.495c-0.021,-3.297 -0.032,-5.071 -0.032,-5.323c0,-3.065 -0.021,-5.816 -0.063,-8.251c-0.084,-6.887 -0.126,-11.695 -0.126,-14.424c0,-7.643 -2.352,-12.766 -7.055,-15.37c-1.511,-0.671 -3.023,-1.007 -4.535,-1.007c-2.477,0 -4.913,0.881 -7.306,2.645c-2.352,1.974 -4.042,5.008 -5.071,9.102c-1.029,4.094 -1.669,8.43 -1.921,13.007c-0.252,4.577 -0.378,8.608 -0.378,12.094c0,9.07 -0.021,18.182 -0.063,27.337l8.881,0l0,3.338l-21.101,0l0,-3.338l8.882,0c0,-9.869 0.01,-19.716 0.031,-29.542c0.021,-9.826 0.032,-16.02 0.032,-18.581c0,-3.528 -0.126,-6.52 -0.378,-8.976c-0.252,-2.457 -0.861,-4.147 -1.827,-5.071c-0.756,-0.714 -1.995,-1.071 -3.716,-1.071c-0.588,0 -1.239,0.042 -1.953,0.126l-0.378,-3.338c0.84,-0.084 1.617,-0.126 2.331,-0.126c2.603,0 4.598,0.63 5.984,1.89c1.889,1.763 2.918,4.703 3.086,8.818c1.218,-3.611 3.044,-6.383 5.48,-8.314c3.107,-2.226 6.236,-3.339 9.385,-3.339c2.016,0 4.031,0.441 6.047,1.323c1.386,0.588 2.877,1.774 4.472,3.559c1.596,1.784 2.835,4.44 3.717,7.968c1.175,-4.157 3.086,-7.328 5.731,-9.511c3.108,-2.226 6.257,-3.339 9.449,-3.339c2.099,0 4.199,0.462 6.299,1.386c1.175,0.546 2.467,1.491 3.873,2.834c1.407,1.344 2.625,3.255 3.654,5.732c1.028,2.478 1.543,5.732 1.543,9.764c0,2.687 0.042,7.495 0.126,14.424l0,0.252c0.042,2.351 0.084,5.018 0.126,7.999l0,21.983Z" style="fill:#595959;fill-rule:nonzero;stroke:#595959;stroke-width:0.83px;stroke-linecap:butt;stroke-linejoin:round;stroke-miterlimit:2;"></path><path d="M856.468,268.912l3.339,0l0,3.338l-21.164,0l0,-3.338l10.834,0c-1.638,-1.89 -2.457,-4.053 -2.457,-6.488c0,-5.417 0.021,-12.682 0.063,-21.794c0.042,-9.112 0.063,-15.726 0.063,-19.841c0,-3.822 -0.105,-6.95 -0.315,-9.386c-0.21,-2.435 -0.756,-4.073 -1.638,-4.913c-0.587,-0.588 -1.7,-0.882 -3.338,-0.882c-0.756,0 -1.617,0.063 -2.582,0.189l-0.378,-3.338c1.007,-0.126 1.994,-0.189 2.96,-0.189c0.588,0 1.396,0.053 2.425,0.157c1.029,0.105 2.089,0.62 3.181,1.544c1.344,1.175 2.184,3.044 2.52,5.606c0.336,2.561 0.503,6.298 0.503,11.212c0,4.115 -0.01,10.729 -0.031,19.841c-0.021,9.112 -0.053,16.377 -0.095,21.794c0.042,1.764 0.672,3.275 1.89,4.535c1.176,1.176 2.583,1.827 4.22,1.953Zm-7.873,-82.578l0,8.44l-3.339,0l0,-8.44l3.339,0Z" style="fill:#595959;fill-rule:nonzero;stroke:#595959;stroke-width:0.83px;stroke-linecap:butt;stroke-linejoin:round;stroke-miterlimit:2;"></path><path d="M896.054,267.022l2.33,2.457c-0.042,0.084 -0.493,0.43 -1.354,1.039c-0.861,0.609 -2.173,1.249 -3.937,1.921c-1.763,0.672 -4.052,1.176 -6.865,1.512c-0.966,0.126 -1.911,0.189 -2.835,0.189c-4.535,0 -8.293,-1.302 -11.275,-3.906c-1.931,-1.805 -3.338,-3.768 -4.22,-5.889c-0.882,-2.121 -1.449,-4 -1.701,-5.637c-0.21,-1.386 -0.315,-2.31 -0.315,-2.772l0,-0.189c-0.042,-0.294 -0.126,-1.543 -0.252,-3.748c-0.125,-2.204 -0.241,-4.892 -0.346,-8.062c-0.105,-3.171 -0.157,-6.268 -0.157,-9.291c0,-1.47 -0.021,-2.981 -0.063,-4.535c-0.042,-1.26 -0.063,-2.499 -0.063,-3.716c0,-3.654 0.22,-7.486 0.661,-11.496c0.441,-4.01 1.963,-7.443 4.567,-10.298c2.645,-2.646 6.298,-3.969 10.96,-3.969c3.485,0 6.309,0.473 8.472,1.418c2.162,0.944 3.831,2.194 5.007,3.747c1.176,1.554 2.005,3.265 2.488,5.134c0.483,1.869 0.787,3.748 0.913,5.637c0.084,1.554 0.116,3.412 0.095,5.575c-0.021,2.162 -0.053,3.832 -0.095,5.007l0,0.252c-0.21,6.593 -3.59,11.002 -10.141,13.228c-2.687,0.84 -5.585,1.365 -8.692,1.575c-2.562,0.168 -5.081,0.252 -7.559,0.252l-3.086,0c0.126,2.855 0.241,5.469 0.346,7.842c0.105,2.372 0.2,4.125 0.284,5.259l0,0.189c0,0.252 0.084,1.008 0.252,2.268c0.168,1.259 0.619,2.813 1.354,4.661c0.735,1.847 1.921,3.527 3.559,5.039c2.309,2.015 5.312,3.023 9.007,3.023c0.798,0 1.638,-0.042 2.52,-0.126c2.351,-0.294 4.272,-0.714 5.763,-1.259c1.491,-0.546 2.593,-1.061 3.307,-1.544c0.714,-0.483 1.071,-0.745 1.071,-0.787Zm-27.589,-32.376c0,1.428 0.021,2.918 0.063,4.472l1.638,0c4.619,0 8.745,-0.241 12.377,-0.724c3.632,-0.483 6.53,-1.564 8.692,-3.244c2.163,-1.68 3.307,-4.304 3.433,-7.874l0,-0.189c0.042,-1.175 0.084,-2.813 0.126,-4.913l0,-2.015c0,-1.26 -0.021,-2.373 -0.063,-3.339c-0.084,-1.469 -0.315,-3.002 -0.693,-4.598c-0.378,-1.596 -1.071,-3.044 -2.078,-4.346c-2.016,-2.604 -5.606,-3.905 -10.771,-3.905c-3.78,0 -6.614,0.987 -8.504,2.96c-2.183,2.394 -3.464,5.69 -3.842,9.889c-0.294,2.982 -0.441,6.089 -0.441,9.323c0,1.301 0.021,2.624 0.063,3.968l0,4.535Z" style="fill:#595959;fill-rule:nonzero;stroke:#595959;stroke-width:0.83px;stroke-linecap:butt;stroke-linejoin:round;stroke-miterlimit:2;"></path></g></g><g id="edanzstokje"><g><path d="M273.24,4.76l0,12.39c-2.789,-1.277 -5.813,-1.958 -8.88,-2c-3.537,-0.027 -7,1.019 -9.93,3c-3.236,2.167 -5.485,5.531 -6.25,9.35c-0.388,1.827 -0.412,3.713 -0.07,5.55c0.354,1.901 1.096,3.709 2.18,5.31c2.667,3.932 7.129,6.283 11.88,6.26c2.967,-0.002 5.865,-0.894 8.32,-2.56c0.99,-0.664 1.911,-1.424 2.75,-2.27l0,4.08l5.3,0l0,-39.11l-5.3,0Zm-0.13,23.31c-0.316,3.865 -2.37,7.384 -5.58,9.56c-1.581,1.074 -3.449,1.649 -5.36,1.65c-2.99,0.02 -5.802,-1.451 -7.49,-3.92c-2.754,-4.247 -1.532,-10.007 2.71,-12.77c2.061,-1.409 4.504,-2.155 7,-2.14c3.061,0.091 6.049,0.962 8.68,2.53c0.236,1.688 0.249,3.399 0.04,5.09Z" style="fill:#595959;fill-rule:nonzero;stroke:#595959;stroke-width:1.1px;stroke-linecap:butt;"></path><path d="M312.64,19.78l-0.79,-0.56c-3.731,-2.541 -8.117,-3.954 -12.63,-4.07c-3.537,-0.027 -7,1.019 -9.93,3c-1.618,1.091 -3.007,2.487 -4.09,4.11c-1.048,1.592 -1.778,3.371 -2.15,5.24c-0.388,1.827 -0.412,3.713 -0.07,5.55c0.346,1.902 1.085,3.71 2.17,5.31c2.673,3.931 7.137,6.281 11.89,6.26c2.966,-0.004 5.865,-0.895 8.32,-2.56c0.986,-0.669 1.907,-1.429 2.75,-2.27l0,4.08l5.29,0l0,-23.51l-0.76,-0.58Zm-4.93,9.85c-0.632,3.267 -2.545,6.149 -5.31,8c-1.582,1.073 -3.449,1.648 -5.36,1.65c-2.994,0.023 -5.81,-1.448 -7.5,-3.92c-2.748,-4.248 -1.527,-10.004 2.71,-12.77c2.062,-1.408 4.504,-2.154 7,-2.14c3.064,0.093 6.055,0.964 8.69,2.53c0.307,2.213 0.229,4.463 -0.23,6.65Z" style="fill:#595959;fill-rule:nonzero;stroke:#595959;stroke-width:1.1px;stroke-linecap:butt;"></path><path d="M349.89,30.22c-0.093,-4.825 -2.542,-9.312 -6.55,-12c-4.564,-3.073 -10.286,-3.913 -15.54,-2.28c-2.445,0.67 -4.749,1.778 -6.8,3.27l-1.36,1.14l0,23.48l5.3,0l0,-21c1.4,-0.788 2.891,-1.403 4.44,-1.83c3.7,-1.153 7.73,-0.568 10.95,1.59c2.582,1.717 4.162,4.599 4.22,7.7l0,13.54l5.3,0l0,-13.61l0.04,0Z" style="fill:#595959;fill-rule:nonzero;stroke:#595959;stroke-width:1.1px;stroke-linecap:butt;"></path><path d="M228.24,44.58c-2.413,-0.02 -4.796,-0.538 -7,-1.52c-2.348,-1.008 -4.371,-2.649 -5.84,-4.74c-1.084,-1.601 -1.826,-3.409 -2.18,-5.31c-0.337,-1.837 -0.313,-3.722 0.07,-5.55c0.797,-3.782 3.041,-7.106 6.25,-9.26c4.553,-3.054 10.254,-3.885 15.49,-2.26c1.172,0.334 2.318,0.752 3.43,1.25c1.643,0.837 3.17,1.886 4.54,3.12l0.1,0.37c0.669,3.175 0.703,6.452 0.1,9.64c-0.06,0.3 -0.13,0.61 -0.2,0.91l-0.5,2l-23.76,0c0.236,0.733 0.573,1.429 1,2.07c1.81,2.7 5.66,3.92 8.47,3.92c3.888,0.115 7.758,-0.583 11.36,-2.05l2.77,-1l1.84,5l-2.76,1c-1.686,0.668 -3.422,1.206 -5.19,1.61c-2.627,0.553 -5.306,0.821 -7.99,0.8Zm-9.65,-16.59l19.62,0c0.186,-1.663 0.159,-3.343 -0.08,-5c-1.473,-0.869 -3.053,-1.542 -4.7,-2c-3.7,-1.151 -7.73,-0.566 -10.95,1.59c-1.903,1.278 -3.284,3.199 -3.89,5.41Z" style="fill:#595959;fill-rule:nonzero;stroke:#595959;stroke-width:1.1px;stroke-linecap:butt;"></path><path d="M382.62,38.07l-2.51,0.2c-6.581,0.434 -13.182,0.494 -19.77,0.18c0.507,-0.725 1.128,-1.364 1.84,-1.89c2.338,-1.594 4.839,-2.935 7.46,-4c3.035,-1.24 5.922,-2.813 8.61,-4.69c1.332,-0.99 2.463,-2.225 3.33,-3.64c0.915,-1.532 1.393,-3.286 1.38,-5.07l0,-2.46l-2.46,-0.2c-7.911,-0.532 -15.849,-0.532 -23.76,0l-2.09,0.17l0,5.31l2.51,-0.2c6.598,-0.434 13.215,-0.498 19.82,-0.19c-0.536,0.805 -1.214,1.507 -2,2.07c-2.368,1.62 -4.902,2.981 -7.56,4.06c-2.995,1.223 -5.845,2.772 -8.5,4.62c-1.312,0.965 -2.426,2.173 -3.28,3.56c-0.909,1.508 -1.383,3.239 -1.37,5l0,2.47l2.46,0.17c4.24,0.29 8.29,0.39 11.81,0.39c6.83,0 11.66,-0.37 12,-0.39l2.09,-0.17l-0.01,-5.3Z" style="fill:#595959;fill-rule:nonzero;stroke:#595959;stroke-width:1.1px;stroke-linecap:butt;"></path></g><path d="M275.96,55.28l0,230" style="fill:none;fill-rule:nonzero;stroke:#595959;stroke-width:4.96px;stroke-linecap:square;"></path></g><defs><radialGradient id="_Radial1" cx="0" cy="0" r="1" gradientUnits="userSpaceOnUse" gradientTransform="matrix(132.759,0,0,-133.641,127.718,126.159)"><stop offset="0" style="stop-color:#e5f4f7;stop-opacity:1"></stop><stop offset="0.12" style="stop-color:#e1f2f6;stop-opacity:1"></stop><stop offset="0.26" style="stop-color:#d3edf1;stop-opacity:1"></stop><stop offset="0.4" style="stop-color:#bee5eb;stop-opacity:1"></stop><stop offset="0.51" style="stop-color:#a9dde4;stop-opacity:1"></stop><stop offset="0.87" style="stop-color:#a9dde4;stop-opacity:1"></stop><stop offset="1" style="stop-color:#88d2db;stop-opacity:1"></stop></radialGradient><linearGradient id="_Linear2" x1="0" y1="0" x2="1" y2="0" gradientUnits="userSpaceOnUse" gradientTransform="matrix(297.935,0,0,296.886,-22.51,222.14)"><stop offset="0" style="stop-color:#fff;stop-opacity:1"></stop><stop offset="0.01" style="stop-color:#eef8fa;stop-opacity:1"></stop><stop offset="0.07" style="stop-color:#89d2dc;stop-opacity:1"></stop><stop offset="0.12" style="stop-color:#3fb5c7;stop-opacity:1"></stop><stop offset="0.16" style="stop-color:#12a4b9;stop-opacity:1"></stop><stop offset="0.17" style="stop-color:#009db4;stop-opacity:1"></stop><stop offset="0.5" style="stop-color:#009cbf;stop-opacity:1"></stop><stop offset="0.59" style="stop-color:#0099b9;stop-opacity:1"></stop><stop offset="0.71" style="stop-color:#0091a9;stop-opacity:1"></stop><stop offset="0.82" style="stop-color:#008694;stop-opacity:1"></stop><stop offset="0.86" style="stop-color:#42a3ae;stop-opacity:1"></stop><stop offset="0.93" style="stop-color:#9fcdd2;stop-opacity:1"></stop><stop offset="0.98" style="stop-color:#dae7e9;stop-opacity:1"></stop><stop offset="1" style="stop-color:#f1f1f2;stop-opacity:1"></stop></linearGradient><linearGradient id="_Linear3" x1="0" y1="0" x2="1" y2="-0.00181222" gradientUnits="userSpaceOnUse" gradientTransform="matrix(242.175,-66.4518,66.6867,241.322,27.8043,287.524)"><stop offset="0" style="stop-color:#fff;stop-opacity:1"></stop><stop offset="0.01" style="stop-color:#dff0f2;stop-opacity:1"></stop><stop offset="0.03" style="stop-color:#bee0e4;stop-opacity:1"></stop><stop offset="0.05" style="stop-color:#a2d3d9;stop-opacity:1"></stop><stop offset="0.07" style="stop-color:#8dc9d1;stop-opacity:1"></stop><stop offset="0.1" style="stop-color:#7ec1cb;stop-opacity:1"></stop><stop offset="0.13" style="stop-color:#76bdc7;stop-opacity:1"></stop><stop offset="0.17" style="stop-color:#73bcc6;stop-opacity:1"></stop><stop offset="0.18" style="stop-color:#6bbac5;stop-opacity:1"></stop><stop offset="0.22" style="stop-color:#4ab2c1;stop-opacity:1"></stop><stop offset="0.26" style="stop-color:#2facbd;stop-opacity:1"></stop><stop offset="0.3" style="stop-color:#1aa7ba;stop-opacity:1"></stop><stop offset="0.35" style="stop-color:#0ba4b8;stop-opacity:1"></stop><stop offset="0.41" style="stop-color:#03a2b7;stop-opacity:1"></stop><stop offset="0.5" style="stop-color:#00a1b7;stop-opacity:1"></stop><stop offset="0.54" style="stop-color:#00a3b9;stop-opacity:1"></stop><stop offset="0.74" style="stop-color:#00abc0;stop-opacity:1"></stop><stop offset="0.77" style="stop-color:#11b0c4;stop-opacity:1"></stop><stop offset="0.82" style="stop-color:#3ebdcd;stop-opacity:1"></stop><stop offset="0.9" style="stop-color:#85d2dc;stop-opacity:1"></stop><stop offset="0.99" style="stop-color:#e7eef0;stop-opacity:1"></stop><stop offset="1" style="stop-color:#f1f1f2;stop-opacity:1"></stop></linearGradient><linearGradient id="_Linear4" x1="0" y1="0" x2="1" y2="0" gradientUnits="userSpaceOnUse" gradientTransform="matrix(9.14836e-15,148.878,-149.404,9.11613e-15,128.441,77.2484)"><stop offset="0" style="stop-color:#fff;stop-opacity:1"></stop><stop offset="0.03" style="stop-color:#eaf5f7;stop-opacity:1"></stop><stop offset="0.11" style="stop-color:#b2dbe2;stop-opacity:1"></stop><stop offset="0.21" style="stop-color:#5ab2c1;stop-opacity:1"></stop><stop offset="0.22" style="stop-color:#50aebd;stop-opacity:1"></stop><stop offset="0.27" style="stop-color:#3ca0ad;stop-opacity:1"></stop><stop offset="0.33" style="stop-color:#28939e;stop-opacity:1"></stop><stop offset="0.39" style="stop-color:#1d8b95;stop-opacity:1"></stop><stop offset="0.45" style="stop-color:#198892;stop-opacity:1"></stop><stop offset="0.51" style="stop-color:#138791;stop-opacity:1"></stop><stop offset="0.58" style="stop-color:#02838d;stop-opacity:1"></stop><stop offset="0.58" style="stop-color:#00828d;stop-opacity:1"></stop><stop offset="0.65" style="stop-color:#007274;stop-opacity:1"></stop><stop offset="0.77" style="stop-color:#007383;stop-opacity:1"></stop><stop offset="0.96" style="stop-color:#006b7a;stop-opacity:1"></stop><stop offset="1" style="stop-color:#006b7a;stop-opacity:1"></stop></linearGradient></defs></svg>